# xmcd
#
# Track frame offsets:
#	183
#	11208
#	20583
#	34408
#	45460
#	57910
#	71995
#	85583
#	96875
#	108520
#	118838
#	131010
#	143593
#	154900
#	166238
#	178245
#	191433
#	202375
#	213658
#	224610
#
# Disc length: 3169 seconds
#
# Revision: 1
# Processed by: cddbd v1.4PL0 Copyright (c) Steve Scherf et al.
# Submitted via: audiograbber 1.82.00
#
DISCID=370c5f14
DTITLE=George Jones - 20 Greatest Hits
DYEAR=1900
DGENRE=Country
TTITLE0=Tender Years
TTITLE1=The Race Is On
TTITLE2=A Good Year For The Roses
TTITLE3=Darling Say It's Not You
TTITLE4=If My Heart Had Windows
TTITLE5=It's Funny What A Fool Will Do
TTITLE6=Things Have Gone To Pieces
TTITLE7=I Can't Change Overnight From Loving You
TTITLE8=White Lightning
TTITLE9=Walk Thru This World With Me
TTITLE10=Take Me
TTITLE11=Just A Girl I Used To Know
TTITLE12=I'll Share My World With You
TTITLE13=Least Of All You
TTITLE14=I Can't Escape From You
TTITLE15=Hearts In My Dreams
TTITLE16=World Of Forgotten People
TTITLE17=You Comb Her Hair Every Morning
TTITLE18=Strangers
TTITLE19=Wedding Bells
EXTD=
EXTT0=
EXTT1=
EXTT2=
EXTT3=
EXTT4=
EXTT5=
EXTT6=
EXTT7=
EXTT8=
EXTT9=
EXTT10=
EXTT11=
EXTT12=
EXTT13=
EXTT14=
EXTT15=
EXTT16=
EXTT17=
EXTT18=
EXTT19=
PLAYORDER=
